# xmcd
#
# Track frame offsets: 
#        150
#        20105
#        43658
#        64935
#        89488
#        109120
#        130268
#        152738
#        175600
#        196500
#        221415
#        245638
#        267800
#
# Disc length: 3706 seconds
#
# Revision: 5
# Processed by: cddbd v1.5.2PL0 Copyright (c) Steve Scherf et al.
# Submitted via: ExactAudioCopy v1.3
#
DISCID=b20e780d
DTITLE=ANRI - 1996 Angel Whisper
DYEAR=1996
DGENRE=JPop
TTITLE0=疑惑
TTITLE1=レディの決意はダイヤモンドより硬い
TTITLE2=あの夏に戻りたい
TTITLE3=もうひとつのBirthday
TTITLE4=1996年の玉手箱
TTITLE5=Angel's Gonna Cry
TTITLE6=Legend Of Love
TTITLE7=楽園を見つけた朝
TTITLE8=Wedding Shower
TTITLE9=Antonio's Song  - The Rainbow
TTITLE10=Morning Dreamer
TTITLE11=Celebration On The Beach
TTITLE12=もうひとつのBirthday(Reprise)
EXTD=YEAR: 1996
EXTT0=
EXTT1=
EXTT2=
EXTT3=
EXTT4=
EXTT5=
EXTT6=
EXTT7=
EXTT8=
EXTT9=
EXTT10=
EXTT11=
EXTT12=
PLAYORDER=
